<?xml version="1.0" encoding="UTF-8"?>
<!DOCTYPE svg PUBLIC "-//W3C//DTD SVG 1.1//EN" "http://www.w3.org/Graphics/SVG/1.1/DTD/svg11.dtd">
<svg xmlns="http://www.w3.org/2000/svg" version="1.1" width="512px" height="512px" style="shape-rendering:geometricPrecision; text-rendering:geometricPrecision; image-rendering:optimizeQuality; fill-rule:evenodd; clip-rule:evenodd" xmlns:xlink="http://www.w3.org/1999/xlink">
<g><path style="opacity:0.957" fill="#000101" d="M 223.5,-0.5 C 228.5,-0.5 233.5,-0.5 238.5,-0.5C 247.559,2.72405 253.893,8.89072 257.5,18C 297.167,18.3333 336.833,18.6667 376.5,19C 383.909,21.4084 389.076,26.2417 392,33.5C 410,64.8333 428,96.1667 446,127.5C 469.915,126.753 480.915,138.419 479,162.5C 476.715,170.451 471.881,176.285 464.5,180C 458.288,181.769 451.955,182.935 445.5,183.5C 425.978,216.545 406.978,249.879 388.5,283.5C 406.767,312.277 425.267,340.944 444,369.5C 453.507,368.604 462.34,370.771 470.5,376C 480.728,387.349 482.228,399.849 475,413.5C 463.86,425.571 451.027,427.738 436.5,420C 425.554,411.07 422.388,399.903 427,386.5C 429.136,383.763 430.136,380.763 430,377.5C 411.5,349.167 393,320.833 374.5,292.5C 337.838,291.333 301.171,291.167 264.5,292C 297.46,348.752 330.293,405.585 363,462.5C 368.726,478.425 365.559,492.259 353.5,504C 349.185,507.322 344.518,509.822 339.5,511.5C 326.167,511.5 312.833,511.5 299.5,511.5C 296.905,509.986 295.571,507.652 295.5,504.5C 295.544,500.91 297.211,498.41 300.5,497C 307.158,496.5 313.825,496.334 320.5,496.5C 328.185,497.264 335.519,496.098 342.5,493C 349.056,487.288 351.556,480.121 350,471.5C 325.005,426.84 299.505,382.507 273.5,338.5C 266.197,337.503 258.863,337.169 251.5,337.5C 208.832,337.333 166.165,337.5 123.5,338C 97.6207,382.256 72.1207,426.756 47,471.5C 45.1174,483.238 49.6174,491.405 60.5,496C 131.5,496.333 202.5,496.667 273.5,497C 277.518,497.863 279.518,500.363 279.5,504.5C 279.429,507.652 278.095,509.986 275.5,511.5C 202.833,511.5 130.167,511.5 57.5,511.5C 37.7775,504.083 29.2775,489.75 32,468.5C 33.1146,464.271 34.7813,460.271 37,456.5C 73.9194,392.997 110.586,329.33 147,265.5C 147.333,247.833 147.667,230.167 148,212.5C 149.571,210.077 151.737,208.744 154.5,208.5C 157.617,208.642 160.117,209.976 162,212.5C 162.667,231.5 162.667,250.5 162,269.5C 153.089,286.323 143.923,302.989 134.5,319.5C 133.733,320.172 133.066,321.005 132.5,322C 176.904,322.83 220.571,322.663 263.5,321.5C 256.184,307.535 248.351,293.868 240,280.5C 237.775,276.719 236.109,272.719 235,268.5C 234.5,228.835 234.333,189.168 234.5,149.5C 235.706,145.635 238.373,143.635 242.5,143.5C 249.947,143.929 257.281,143.429 264.5,142C 269.362,135.304 268.029,130.304 260.5,127C 218.665,126.169 176.998,126.335 135.5,127.5C 128.87,131.105 127.87,135.939 132.5,142C 140.731,143.273 149.064,143.94 157.5,144C 159.286,144.785 160.786,145.951 162,147.5C 162.667,161.5 162.667,175.5 162,189.5C 160.111,192.246 157.611,193.913 154.5,194.5C 151.331,194.161 149.164,192.495 148,189.5C 147.5,179.506 147.334,169.506 147.5,159.5C 122.475,161.315 111.975,149.982 116,125.5C 119.389,118.446 124.889,113.946 132.5,112C 145.846,111.833 159.179,111.333 172.5,110.5C 185.04,88.5848 197.707,66.7515 210.5,45C 202.191,34.1189 201.358,22.6189 208,10.5C 212.127,5.20202 217.294,1.53536 223.5,-0.5 Z M 257.5,34.5 C 296.168,34.3333 334.835,34.5 373.5,35C 393.167,68.6667 412.833,102.333 432.5,136C 421.833,148.667 421.833,161.333 432.5,174C 412.833,207.667 393.167,241.333 373.5,275C 334.167,275.667 294.833,275.667 255.5,275C 253.288,272.079 251.455,268.912 250,265.5C 249.5,230.168 249.333,194.835 249.5,159.5C 275.89,160.957 286.057,148.957 280,123.5C 276.551,117.389 271.385,113.556 264.5,112C 239.833,111.667 215.167,111.333 190.5,111C 201.374,92.0846 212.374,73.2513 223.5,54.5C 239.853,56.0018 251.186,49.3351 257.5,34.5 Z"/></g>
<g><path style="opacity:1" fill="#8cd170" d="M 226.5,14.5 C 238.891,13.7206 244.058,19.3873 242,31.5C 238.373,37.1579 233.207,39.3246 226.5,38C 215.888,30.1696 215.888,22.3363 226.5,14.5 Z"/></g>
<g><path style="opacity:0.999" fill="#f4f2f4" d="M 135.5,127.5 C 171.168,127.333 206.835,127.5 242.5,128C 245.087,133.102 245.087,138.269 242.5,143.5C 238.373,143.635 235.706,145.635 234.5,149.5C 233.527,149.987 232.527,150.487 231.5,151C 224.842,151.5 218.175,151.666 211.5,151.5C 211.333,189.835 211.5,228.168 212,266.5C 221.643,285.119 231.81,303.452 242.5,321.5C 206.151,322.16 170.151,321.494 134.5,319.5C 143.923,302.989 153.089,286.323 162,269.5C 162.667,250.5 162.667,231.5 162,212.5C 160.117,209.976 157.617,208.642 154.5,208.5C 154.5,203.833 154.5,199.167 154.5,194.5C 157.611,193.913 160.111,192.246 162,189.5C 162.667,175.5 162.667,161.5 162,147.5C 160.786,145.951 159.286,144.785 157.5,144C 149.064,143.94 140.731,143.273 132.5,142C 127.87,135.939 128.87,131.105 135.5,127.5 Z"/></g>
<g><path style="opacity:1" fill="#cbc9cb" d="M 135.5,127.5 C 176.998,126.335 218.665,126.169 260.5,127C 268.029,130.304 269.362,135.304 264.5,142C 257.281,143.429 249.947,143.929 242.5,143.5C 245.087,138.269 245.087,133.102 242.5,128C 206.835,127.5 171.168,127.333 135.5,127.5 Z"/></g>
<g><path style="opacity:1" fill="#8bd070" d="M 447.5,143.5 C 462.031,142.585 466.864,148.919 462,162.5C 453.366,170.005 446.366,168.671 441,158.5C 439.703,151.974 441.869,146.974 447.5,143.5 Z"/></g>
<g><path style="opacity:1" fill="#e4e1e4" d="M 234.5,149.5 C 234.333,189.168 234.5,228.835 235,268.5C 236.109,272.719 237.775,276.719 240,280.5C 248.351,293.868 256.184,307.535 263.5,321.5C 256.5,321.5 249.5,321.5 242.5,321.5C 231.81,303.452 221.643,285.119 212,266.5C 211.5,228.168 211.333,189.835 211.5,151.5C 218.175,151.666 224.842,151.5 231.5,151C 232.527,150.487 233.527,149.987 234.5,149.5 Z"/></g>
<g><path style="opacity:1" fill="#b1afb1" d="M 134.5,319.5 C 170.151,321.494 206.151,322.16 242.5,321.5C 249.5,321.5 256.5,321.5 263.5,321.5C 220.571,322.663 176.904,322.83 132.5,322C 133.066,321.005 133.733,320.172 134.5,319.5 Z"/></g>
<g><path style="opacity:1" fill="#99d3fd" d="M 251.5,337.5 C 276.322,380.473 301.155,423.473 326,466.5C 329.292,477.535 327.459,487.535 320.5,496.5C 313.825,496.334 307.158,496.5 300.5,497C 297.211,498.41 295.544,500.91 295.5,504.5C 290.167,504.5 284.833,504.5 279.5,504.5C 279.518,500.363 277.518,497.863 273.5,497C 202.5,496.667 131.5,496.333 60.5,496C 49.6174,491.405 45.1174,483.238 47,471.5C 72.1207,426.756 97.6207,382.256 123.5,338C 166.165,337.5 208.832,337.333 251.5,337.5 Z"/></g>
<g><path style="opacity:1" fill="#6fc3fd" d="M 251.5,337.5 C 258.863,337.169 266.197,337.503 273.5,338.5C 299.505,382.507 325.005,426.84 350,471.5C 351.556,480.121 349.056,487.288 342.5,493C 335.519,496.098 328.185,497.264 320.5,496.5C 327.459,487.535 329.292,477.535 326,466.5C 301.155,423.473 276.322,380.473 251.5,337.5 Z"/></g>
<g><path style="opacity:1" fill="#020304" d="M 229.5,354.5 C 254.701,354.204 267.535,366.538 268,391.5C 262.487,412.322 248.987,421.155 227.5,418C 209.602,411.385 202.102,398.552 205,379.5C 208.674,366.66 216.841,358.327 229.5,354.5 Z"/></g>
<g><path style="opacity:1" fill="#28b1f7" d="M 231.5,369.5 C 249.392,369.87 255.892,378.537 251,395.5C 242.726,406.158 233.393,407.158 223,398.5C 215.608,385.841 218.442,376.174 231.5,369.5 Z"/></g>
<g><path style="opacity:1" fill="#8cd271" d="M 447.5,385.5 C 460.869,384.691 466.036,390.691 463,403.5C 455.923,411.423 448.923,411.423 442,403.5C 438.967,395.924 440.8,389.924 447.5,385.5 Z"/></g>
<g><path style="opacity:1" fill="#030405" d="M 123.5,404.5 C 137.205,402.932 146.372,408.598 151,421.5C 150.641,442.526 140.141,451.026 119.5,447C 106.619,439.023 103.453,428.19 110,414.5C 113.416,409.558 117.916,406.224 123.5,404.5 Z"/></g>
<g><path style="opacity:1" fill="#27aff5" d="M 125.5,419.5 C 131.523,418.197 135.189,420.53 136.5,426.5C 135.189,432.643 131.523,434.809 125.5,433C 120.246,428.408 120.246,423.908 125.5,419.5 Z"/></g>
<g><path style="opacity:1" fill="#030405" d="M 280.5,433.5 C 299.199,433.695 308.033,443.029 307,461.5C 302.422,474.543 293.255,480.043 279.5,478C 264.248,471.254 259.748,460.087 266,444.5C 269.857,439.468 274.69,435.801 280.5,433.5 Z"/></g>
<g><path style="opacity:1" fill="#27aff4" d="M 282.5,448.5 C 290.201,448.362 293.367,452.029 292,459.5C 287.489,464.757 283.156,464.757 279,459.5C 277.662,454.96 278.829,451.293 282.5,448.5 Z"/></g>
</svg>
